<mxfile host="app.diagrams.net" agent="Mozilla/5.0 (Windows NT 10.0; Win64; x64) AppleWebKit/537.36 (KHTML, like Gecko) Chrome/131.0.0.0 Safari/537.36" version="24.8.9">
  <diagram name="Страница — 1" id="rvfER8_nhe5e8ryY9azv">
    <mxGraphModel dx="1050" dy="565" grid="1" gridSize="10" guides="1" tooltips="1" connect="1" arrows="1" fold="1" page="1" pageScale="1" pageWidth="827" pageHeight="1169" math="0" shadow="0">
      <root>
        <mxCell id="0" />
        <mxCell id="1" parent="0" />
        <mxCell id="NsT4Z7Q7jQg5N3jqK0rc-1" value="Book" style="swimlane;fontStyle=2;align=center;verticalAlign=top;childLayout=stackLayout;horizontal=1;startSize=26;horizontalStack=0;resizeParent=1;resizeLast=0;collapsible=1;marginBottom=0;rounded=0;shadow=0;strokeWidth=1;" vertex="1" parent="1">
          <mxGeometry x="340" y="490" width="160" height="190" as="geometry">
            <mxRectangle x="230" y="140" width="160" height="26" as="alternateBounds" />
          </mxGeometry>
        </mxCell>
        <mxCell id="NsT4Z7Q7jQg5N3jqK0rc-2" value="+ Title: string " style="text;align=left;verticalAlign=top;spacingLeft=4;spacingRight=4;overflow=hidden;rotatable=0;points=[[0,0.5],[1,0.5]];portConstraint=eastwest;" vertex="1" parent="NsT4Z7Q7jQg5N3jqK0rc-1">
          <mxGeometry y="26" width="160" height="26" as="geometry" />
        </mxCell>
        <mxCell id="NsT4Z7Q7jQg5N3jqK0rc-3" value="+ Author: string " style="text;align=left;verticalAlign=top;spacingLeft=4;spacingRight=4;overflow=hidden;rotatable=0;points=[[0,0.5],[1,0.5]];portConstraint=eastwest;rounded=0;shadow=0;html=0;" vertex="1" parent="NsT4Z7Q7jQg5N3jqK0rc-1">
          <mxGeometry y="52" width="160" height="26" as="geometry" />
        </mxCell>
        <mxCell id="NsT4Z7Q7jQg5N3jqK0rc-4" value="+ ISBN: int" style="text;align=left;verticalAlign=top;spacingLeft=4;spacingRight=4;overflow=hidden;rotatable=0;points=[[0,0.5],[1,0.5]];portConstraint=eastwest;rounded=0;shadow=0;html=0;" vertex="1" parent="NsT4Z7Q7jQg5N3jqK0rc-1">
          <mxGeometry y="78" width="160" height="26" as="geometry" />
        </mxCell>
        <mxCell id="NsT4Z7Q7jQg5N3jqK0rc-5" value="+ Status: bool " style="text;align=left;verticalAlign=top;spacingLeft=4;spacingRight=4;overflow=hidden;rotatable=0;points=[[0,0.5],[1,0.5]];portConstraint=eastwest;rounded=0;shadow=0;html=0;" vertex="1" parent="NsT4Z7Q7jQg5N3jqK0rc-1">
          <mxGeometry y="104" width="160" height="26" as="geometry" />
        </mxCell>
        <mxCell id="NsT4Z7Q7jQg5N3jqK0rc-6" value="" style="line;html=1;strokeWidth=1;align=left;verticalAlign=middle;spacingTop=-1;spacingLeft=3;spacingRight=3;rotatable=0;labelPosition=right;points=[];portConstraint=eastwest;" vertex="1" parent="NsT4Z7Q7jQg5N3jqK0rc-1">
          <mxGeometry y="130" width="160" height="8" as="geometry" />
        </mxCell>
        <mxCell id="NsT4Z7Q7jQg5N3jqK0rc-7" value="void MarkAsLoaned(): void" style="text;align=left;verticalAlign=top;spacingLeft=4;spacingRight=4;overflow=hidden;rotatable=0;points=[[0,0.5],[1,0.5]];portConstraint=eastwest;" vertex="1" parent="NsT4Z7Q7jQg5N3jqK0rc-1">
          <mxGeometry y="138" width="160" height="26" as="geometry" />
        </mxCell>
        <mxCell id="NsT4Z7Q7jQg5N3jqK0rc-8" value="void MarkAsLoaned(): void" style="text;align=left;verticalAlign=top;spacingLeft=4;spacingRight=4;overflow=hidden;rotatable=0;points=[[0,0.5],[1,0.5]];portConstraint=eastwest;" vertex="1" parent="NsT4Z7Q7jQg5N3jqK0rc-1">
          <mxGeometry y="164" width="160" height="26" as="geometry" />
        </mxCell>
        <mxCell id="NsT4Z7Q7jQg5N3jqK0rc-9" value="Reader" style="swimlane;fontStyle=0;align=center;verticalAlign=top;childLayout=stackLayout;horizontal=1;startSize=26;horizontalStack=0;resizeParent=1;resizeLast=0;collapsible=1;marginBottom=0;rounded=0;shadow=0;strokeWidth=1;" vertex="1" parent="1">
          <mxGeometry x="560" y="255" width="212" height="150" as="geometry">
            <mxRectangle x="550" y="140" width="160" height="26" as="alternateBounds" />
          </mxGeometry>
        </mxCell>
        <mxCell id="NsT4Z7Q7jQg5N3jqK0rc-10" value="+ Name: string" style="text;align=left;verticalAlign=top;spacingLeft=4;spacingRight=4;overflow=hidden;rotatable=0;points=[[0,0.5],[1,0.5]];portConstraint=eastwest;rounded=0;shadow=0;html=0;" vertex="1" parent="NsT4Z7Q7jQg5N3jqK0rc-9">
          <mxGeometry y="26" width="212" height="26" as="geometry" />
        </mxCell>
        <mxCell id="NsT4Z7Q7jQg5N3jqK0rc-11" value="+ RentedBooks: list &lt;Book&gt;" style="text;align=left;verticalAlign=top;spacingLeft=4;spacingRight=4;overflow=hidden;rotatable=0;points=[[0,0.5],[1,0.5]];portConstraint=eastwest;rounded=0;shadow=0;html=0;" vertex="1" parent="NsT4Z7Q7jQg5N3jqK0rc-9">
          <mxGeometry y="52" width="212" height="24" as="geometry" />
        </mxCell>
        <mxCell id="NsT4Z7Q7jQg5N3jqK0rc-12" value="" style="line;html=1;strokeWidth=1;align=left;verticalAlign=middle;spacingTop=-1;spacingLeft=3;spacingRight=3;rotatable=0;labelPosition=right;points=[];portConstraint=eastwest;" vertex="1" parent="NsT4Z7Q7jQg5N3jqK0rc-9">
          <mxGeometry y="76" width="212" height="8" as="geometry" />
        </mxCell>
        <mxCell id="NsT4Z7Q7jQg5N3jqK0rc-13" value="void RentBook(Book book): void" style="text;align=left;verticalAlign=top;spacingLeft=4;spacingRight=4;overflow=hidden;rotatable=0;points=[[0,0.5],[1,0.5]];portConstraint=eastwest;" vertex="1" parent="NsT4Z7Q7jQg5N3jqK0rc-9">
          <mxGeometry y="84" width="212" height="26" as="geometry" />
        </mxCell>
        <mxCell id="NsT4Z7Q7jQg5N3jqK0rc-14" value="void ReturnBook(Book book): void" style="text;align=left;verticalAlign=top;spacingLeft=4;spacingRight=4;overflow=hidden;rotatable=0;points=[[0,0.5],[1,0.5]];portConstraint=eastwest;" vertex="1" parent="NsT4Z7Q7jQg5N3jqK0rc-9">
          <mxGeometry y="110" width="212" height="26" as="geometry" />
        </mxCell>
        <mxCell id="NsT4Z7Q7jQg5N3jqK0rc-15" style="edgeStyle=orthogonalEdgeStyle;rounded=0;orthogonalLoop=1;jettySize=auto;html=1;entryX=0.5;entryY=0;entryDx=0;entryDy=0;" edge="1" parent="1" source="NsT4Z7Q7jQg5N3jqK0rc-18" target="NsT4Z7Q7jQg5N3jqK0rc-23">
          <mxGeometry relative="1" as="geometry" />
        </mxCell>
        <mxCell id="NsT4Z7Q7jQg5N3jqK0rc-16" value="1" style="edgeLabel;html=1;align=center;verticalAlign=middle;resizable=0;points=[];" vertex="1" connectable="0" parent="NsT4Z7Q7jQg5N3jqK0rc-15">
          <mxGeometry x="0.8452" y="-1" relative="1" as="geometry">
            <mxPoint as="offset" />
          </mxGeometry>
        </mxCell>
        <mxCell id="NsT4Z7Q7jQg5N3jqK0rc-17" value="*" style="edgeLabel;html=1;align=center;verticalAlign=middle;resizable=0;points=[];" vertex="1" connectable="0" parent="NsT4Z7Q7jQg5N3jqK0rc-15">
          <mxGeometry x="-0.8849" relative="1" as="geometry">
            <mxPoint as="offset" />
          </mxGeometry>
        </mxCell>
        <mxCell id="NsT4Z7Q7jQg5N3jqK0rc-18" value="Librarian" style="swimlane;fontStyle=0;align=center;verticalAlign=top;childLayout=stackLayout;horizontal=1;startSize=26;horizontalStack=0;resizeParent=1;resizeLast=0;collapsible=1;marginBottom=0;rounded=0;shadow=0;strokeWidth=1;fillColor=default;" vertex="1" parent="1">
          <mxGeometry x="230" y="10" width="280" height="140" as="geometry">
            <mxRectangle x="550" y="140" width="160" height="26" as="alternateBounds" />
          </mxGeometry>
        </mxCell>
        <mxCell id="NsT4Z7Q7jQg5N3jqK0rc-19" value="+ Name: string" style="text;align=left;verticalAlign=top;spacingLeft=4;spacingRight=4;overflow=hidden;rotatable=0;points=[[0,0.5],[1,0.5]];portConstraint=eastwest;rounded=0;shadow=0;html=0;" vertex="1" parent="NsT4Z7Q7jQg5N3jqK0rc-18">
          <mxGeometry y="26" width="280" height="26" as="geometry" />
        </mxCell>
        <mxCell id="NsT4Z7Q7jQg5N3jqK0rc-20" value="" style="line;html=1;strokeWidth=1;align=left;verticalAlign=middle;spacingTop=-1;spacingLeft=3;spacingRight=3;rotatable=0;labelPosition=right;points=[];portConstraint=eastwest;" vertex="1" parent="NsT4Z7Q7jQg5N3jqK0rc-18">
          <mxGeometry y="52" width="280" height="20" as="geometry" />
        </mxCell>
        <mxCell id="NsT4Z7Q7jQg5N3jqK0rc-21" value="void AddBook(Library library, Book book): void" style="text;align=left;verticalAlign=top;spacingLeft=4;spacingRight=4;overflow=hidden;rotatable=0;points=[[0,0.5],[1,0.5]];portConstraint=eastwest;" vertex="1" parent="NsT4Z7Q7jQg5N3jqK0rc-18">
          <mxGeometry y="72" width="280" height="26" as="geometry" />
        </mxCell>
        <mxCell id="NsT4Z7Q7jQg5N3jqK0rc-22" value="void RemoveBook(Library library, Book book): void" style="text;align=left;verticalAlign=top;spacingLeft=4;spacingRight=4;overflow=hidden;rotatable=0;points=[[0,0.5],[1,0.5]];portConstraint=eastwest;" vertex="1" parent="NsT4Z7Q7jQg5N3jqK0rc-18">
          <mxGeometry y="98" width="280" height="26" as="geometry" />
        </mxCell>
        <mxCell id="NsT4Z7Q7jQg5N3jqK0rc-23" value="Library" style="swimlane;fontStyle=0;align=center;verticalAlign=top;childLayout=stackLayout;horizontal=1;startSize=26;horizontalStack=0;resizeParent=1;resizeLast=0;collapsible=1;marginBottom=0;rounded=0;shadow=0;strokeWidth=1;" vertex="1" parent="1">
          <mxGeometry x="40" y="250" width="276" height="160" as="geometry">
            <mxRectangle x="550" y="140" width="160" height="26" as="alternateBounds" />
          </mxGeometry>
        </mxCell>
        <mxCell id="NsT4Z7Q7jQg5N3jqK0rc-24" value="+ Books : list &lt;Book&gt;" style="text;align=left;verticalAlign=top;spacingLeft=4;spacingRight=4;overflow=hidden;rotatable=0;points=[[0,0.5],[1,0.5]];portConstraint=eastwest;" vertex="1" parent="NsT4Z7Q7jQg5N3jqK0rc-23">
          <mxGeometry y="26" width="276" height="26" as="geometry" />
        </mxCell>
        <mxCell id="NsT4Z7Q7jQg5N3jqK0rc-25" value="" style="line;html=1;strokeWidth=1;align=left;verticalAlign=middle;spacingTop=-1;spacingLeft=3;spacingRight=3;rotatable=0;labelPosition=right;points=[];portConstraint=eastwest;" vertex="1" parent="NsT4Z7Q7jQg5N3jqK0rc-23">
          <mxGeometry y="52" width="276" height="20" as="geometry" />
        </mxCell>
        <mxCell id="NsT4Z7Q7jQg5N3jqK0rc-26" value="void DisplayAvailableBooks(): void" style="text;align=left;verticalAlign=top;spacingLeft=4;spacingRight=4;overflow=hidden;rotatable=0;points=[[0,0.5],[1,0.5]];portConstraint=eastwest;" vertex="1" parent="NsT4Z7Q7jQg5N3jqK0rc-23">
          <mxGeometry y="72" width="276" height="26" as="geometry" />
        </mxCell>
        <mxCell id="NsT4Z7Q7jQg5N3jqK0rc-27" value="void DisplayAllBooks(): void" style="text;align=left;verticalAlign=top;spacingLeft=4;spacingRight=4;overflow=hidden;rotatable=0;points=[[0,0.5],[1,0.5]];portConstraint=eastwest;" vertex="1" parent="NsT4Z7Q7jQg5N3jqK0rc-23">
          <mxGeometry y="98" width="276" height="26" as="geometry" />
        </mxCell>
        <mxCell id="NsT4Z7Q7jQg5N3jqK0rc-28" value="void Book SearchBook(string searchTerm): void" style="text;align=left;verticalAlign=top;spacingLeft=4;spacingRight=4;overflow=hidden;rotatable=0;points=[[0,0.5],[1,0.5]];portConstraint=eastwest;" vertex="1" parent="NsT4Z7Q7jQg5N3jqK0rc-23">
          <mxGeometry y="124" width="276" height="26" as="geometry" />
        </mxCell>
        <mxCell id="NsT4Z7Q7jQg5N3jqK0rc-29" style="edgeStyle=orthogonalEdgeStyle;rounded=0;orthogonalLoop=1;jettySize=auto;html=1;endArrow=diamondThin;endFill=1;" edge="1" parent="1" source="NsT4Z7Q7jQg5N3jqK0rc-26" target="NsT4Z7Q7jQg5N3jqK0rc-1">
          <mxGeometry relative="1" as="geometry" />
        </mxCell>
        <mxCell id="NsT4Z7Q7jQg5N3jqK0rc-30" value="1" style="edgeLabel;html=1;align=center;verticalAlign=middle;resizable=0;points=[];" vertex="1" connectable="0" parent="NsT4Z7Q7jQg5N3jqK0rc-29">
          <mxGeometry x="-0.8239" y="-2" relative="1" as="geometry">
            <mxPoint as="offset" />
          </mxGeometry>
        </mxCell>
        <mxCell id="NsT4Z7Q7jQg5N3jqK0rc-31" value="*" style="edgeLabel;html=1;align=center;verticalAlign=middle;resizable=0;points=[];" vertex="1" connectable="0" parent="NsT4Z7Q7jQg5N3jqK0rc-29">
          <mxGeometry x="0.8208" y="-2" relative="1" as="geometry">
            <mxPoint as="offset" />
          </mxGeometry>
        </mxCell>
        <mxCell id="NsT4Z7Q7jQg5N3jqK0rc-32" style="edgeStyle=orthogonalEdgeStyle;rounded=0;orthogonalLoop=1;jettySize=auto;html=1;entryX=0.567;entryY=-0.005;entryDx=0;entryDy=0;entryPerimeter=0;endArrow=diamondThin;endFill=0;" edge="1" parent="1" source="NsT4Z7Q7jQg5N3jqK0rc-11" target="NsT4Z7Q7jQg5N3jqK0rc-1">
          <mxGeometry relative="1" as="geometry" />
        </mxCell>
        <mxCell id="NsT4Z7Q7jQg5N3jqK0rc-33" value="*" style="edgeLabel;html=1;align=center;verticalAlign=middle;resizable=0;points=[];" vertex="1" connectable="0" parent="NsT4Z7Q7jQg5N3jqK0rc-32">
          <mxGeometry x="0.838" y="1" relative="1" as="geometry">
            <mxPoint as="offset" />
          </mxGeometry>
        </mxCell>
        <mxCell id="NsT4Z7Q7jQg5N3jqK0rc-34" value="*" style="edgeLabel;html=1;align=center;verticalAlign=middle;resizable=0;points=[];" vertex="1" connectable="0" parent="NsT4Z7Q7jQg5N3jqK0rc-32">
          <mxGeometry x="-0.8116" y="2" relative="1" as="geometry">
            <mxPoint as="offset" />
          </mxGeometry>
        </mxCell>
      </root>
    </mxGraphModel>
  </diagram>
</mxfile>
